<svg width="1420" height="400" viewBox="0 0 1420 400" fill="none" xmlns="http://www.w3.org/2000/svg">
<mask id="mask0_6_527" style="mask-type:alpha" maskUnits="userSpaceOnUse" x="0" y="0" width="400" height="400">
<rect width="400" height="400" fill="#D9D9D9"/>
</mask>
<g mask="url(#mask0_6_527)">
<path d="M299.927 55.9736C303.666 52.3123 308.69 50.2618 313.922 50.2618H400L100.073 344.026C96.3344 347.688 91.3103 349.738 86.0779 349.738H0L299.927 55.9736Z" fill="black"/>
<path d="M60.7329 193.194L138.743 116.754H197.382L263.874 50.2617H101.478C96.1736 50.2617 91.0865 52.3689 87.3358 56.1196L66.5908 76.8646C62.84 80.6153 60.7329 85.7024 60.7329 91.0067V193.194Z" fill="black"/>
<path d="M339.267 206.806L261.257 283.246H202.618L136.126 349.738H298.522C303.826 349.738 308.913 347.631 312.664 343.88L333.409 323.135C337.16 319.385 339.267 314.298 339.267 308.993V206.806Z" fill="black"/>
</g>
<path fill-rule="evenodd" clip-rule="evenodd" d="M655.84 109.862H601.255L672.636 269.756L639.045 345H693.63L798.602 109.862H744.017L699.929 208.62L655.84 109.862Z" fill="black"/>
<path fill-rule="evenodd" clip-rule="evenodd" d="M440 109.862H582.762V156.05H440V109.862ZM502.983 244.227L582.762 244.227V286.216H440V244.227H440L519.779 156.05L582.762 156.05L502.983 244.227Z" fill="black"/>
<path fill-rule="evenodd" clip-rule="evenodd" d="M859.585 109.586V55H813.397V189.364C813.397 243.86 857.575 288.038 912.071 288.038V241.85C883.084 241.85 859.585 218.352 859.585 189.364V155.773H912.071V109.586H859.585Z" fill="black"/>
<path d="M1220.39 198.039C1220.39 246.738 1180.91 286.216 1132.21 286.216C1083.51 286.216 1044.03 246.738 1044.03 198.039C1044.03 149.34 1083.51 109.862 1132.21 109.862C1180.91 109.862 1220.39 149.34 1220.39 198.039ZM1088.12 198.039C1088.12 222.388 1107.86 242.127 1132.21 242.127C1156.56 242.127 1176.3 222.388 1176.3 198.039C1176.3 173.69 1156.56 153.951 1132.21 153.951C1107.86 153.951 1088.12 173.69 1088.12 198.039Z" fill="black"/>
<path fill-rule="evenodd" clip-rule="evenodd" d="M1020.84 153.584C996.49 153.584 976.751 173.323 976.751 197.673V285.849H930.564V197.673C930.564 147.815 970.982 107.397 1020.84 107.397H1029.24V153.584H1020.84Z" fill="black"/>
<path fill-rule="evenodd" clip-rule="evenodd" d="M1238.88 193.474C1238.88 145.935 1277.42 107.397 1324.96 107.397H1333.35C1380.89 107.397 1419.43 145.935 1419.43 193.474V285.849H1373.24V193.474C1373.24 171.444 1355.38 153.584 1333.35 153.584H1324.96C1302.93 153.584 1285.07 171.444 1285.07 193.474V285.849H1238.88V193.474Z" fill="black"/>
</svg>
