<svg width="107" height="95" viewBox="0 0 107 95" fill="none" xmlns="http://www.w3.org/2000/svg">
<path fill-rule="evenodd" clip-rule="evenodd" d="M37.9882 0C40.607 0 42.7298 2.0267 42.7298 4.52675V15.2544C42.7298 17.7544 40.607 19.7812 37.9882 19.7812H27.4617C24.843 19.7812 22.7202 21.8079 22.7202 24.3079V90.4228C22.7202 92.9229 20.5972 94.9496 17.9785 94.9496H4.7416C2.1229 94.9496 0 92.9229 0 90.4228V24.3079C0 21.8079 2.1229 19.7812 4.74162 19.7812H17.2682C19.8868 19.7812 22.0097 17.7544 22.0097 15.2544V4.52675C22.0097 2.0267 24.1327 0 26.7513 0L37.9882 0ZM79.4285 0C82.0471 0 84.1701 2.0267 84.1701 4.52675V15.2544C84.1701 17.7544 86.293 19.7812 88.9116 19.7812H101.438C104.057 19.7812 106.18 21.8079 106.18 24.3079V90.4228C106.18 92.9229 104.057 94.9496 101.438 94.9496H88.2013C85.5825 94.9496 83.4596 92.9229 83.4596 90.4228V24.3079C83.4596 21.8079 81.3368 19.7812 78.718 19.7812H68.1916C65.5728 19.7812 63.45 17.7544 63.45 15.2544V4.52674C63.45 2.0267 65.5728 0 68.1916 0L79.4285 0ZM58.7083 37.8669C61.3271 37.8669 63.45 39.8935 63.45 42.3936V71.7721C63.45 74.2722 61.3271 76.2988 58.7083 76.2988H47.4715C44.8527 76.2988 42.7298 74.2722 42.7298 71.7721V42.3936C42.7298 39.8935 44.8527 37.8669 47.4715 37.8669H58.7083Z" fill="black"/>
<path fill-rule="evenodd" clip-rule="evenodd" d="M85.7045 49.0194C88.3233 49.0194 90.4461 51.046 90.4461 53.5461V62.0096C90.4461 64.5097 88.3233 66.5364 85.7045 66.5364H11.483C8.86421 66.5364 4.74135 62.0096 4.74135 62.0096V53.5461C4.74135 51.046 8.86421 49.0194 11.483 49.0194H85.7045Z" fill="black"/>
</svg>
